<svg width="107" height="34" viewBox="0 0 107 34" fill="none" xmlns="http://www.w3.org/2000/svg">
<g clip-path="url(#clip0_30_592)">
<path d="M14.7125 15.5723C15.4615 15.9207 16.0371 16.4155 16.4395 17.0568C16.8418 17.6981 17.0436 18.457 17.0451 19.3334C17.0451 20.2 16.8432 20.9563 16.4395 21.6024C16.0357 22.2485 15.46 22.7433 14.7125 23.0869C13.9635 23.4298 13.0822 23.6012 12.0685 23.6012H9.76052V26.8569H7.10852V15.0491H12.0685C13.0839 15.0491 13.9653 15.2235 14.7125 15.5723ZM13.7382 20.8433C14.153 20.4894 14.3604 19.9861 14.3604 19.3334C14.3604 18.6719 14.153 18.1631 13.7382 17.807C13.3234 17.4509 12.7171 17.2738 11.9192 17.2756H9.76052V21.3747H11.9214C12.7182 21.3747 13.3238 21.1976 13.7382 20.8433Z" fill="url(#paint0_linear_30_592)"/>
<path d="M21.4246 26.2665C20.4964 25.7643 19.7203 25.0085 19.1813 24.0819C18.6417 23.154 18.3717 22.111 18.3713 20.953C18.371 19.795 18.641 18.7521 19.1813 17.8241C19.7203 16.8975 20.4964 16.1417 21.4246 15.6395C22.379 15.1114 23.4512 14.8472 24.641 14.8468C25.8308 14.8464 26.9008 15.1107 27.851 15.6395C28.7766 16.1453 29.5517 16.9003 30.0937 17.8241C30.6387 18.7521 30.9116 19.795 30.9123 20.953C30.913 22.111 30.6401 23.154 30.0937 24.0819C29.5517 25.0057 28.7766 25.7607 27.851 26.2665C26.9016 26.795 25.8316 27.0592 24.641 27.0592C23.4504 27.0592 22.3783 26.795 21.4246 26.2665ZM26.4744 24.2506C27.0151 23.9351 27.4597 23.4707 27.7584 22.9094C28.0698 22.3361 28.2253 21.684 28.225 20.953C28.2246 20.2221 28.0691 19.5697 27.7584 18.9961C27.4595 18.4351 27.0149 17.9709 26.4744 17.6554C25.9118 17.34 25.2815 17.1747 24.641 17.1747C24.0005 17.1747 23.3702 17.34 22.8076 17.6554C22.2671 17.9709 21.8225 18.4351 21.5236 18.9961C21.2129 19.5697 21.0574 20.2221 21.057 20.953C21.0567 21.684 21.2122 22.3361 21.5236 22.9094C21.8223 23.4707 22.2669 23.9351 22.8076 24.2506C23.3702 24.566 24.0005 24.7313 24.641 24.7313C25.2815 24.7313 25.9118 24.566 26.4744 24.2506Z" fill="url(#paint1_linear_30_592)"/>
<path d="M45.3006 28.122C44.939 28.5863 44.4762 28.9562 43.9497 29.2014C43.4014 29.4527 42.8068 29.5793 42.2067 29.5724C41.3557 29.5724 40.5862 29.384 39.8982 29.0073C39.2102 28.6306 38.4244 27.9653 37.541 27.0113C36.5041 26.876 35.5791 26.5331 34.7659 25.9826C33.968 25.4483 33.3147 24.7141 32.8672 23.8487C32.4139 22.9774 32.1874 22.0131 32.1877 20.9558C32.1877 19.7974 32.4579 18.7544 32.9983 17.8269C33.5371 16.9004 34.313 16.1446 35.241 15.6423C36.1958 15.1142 37.2681 14.8499 38.4579 14.8496C39.6478 14.8492 40.7178 15.1134 41.6679 15.6423C42.5937 16.1478 43.3689 16.9028 43.9107 17.8269C44.4542 18.753 44.726 19.795 44.726 20.953C44.726 22.3249 44.3515 23.5281 43.6025 24.5626C42.8535 25.5971 41.863 26.3169 40.6311 26.7218C40.904 27.0158 41.1686 27.2266 41.4251 27.3541C41.6823 27.4838 41.9653 27.5502 42.2516 27.5482C42.961 27.5482 43.5832 27.2558 44.1182 26.6711L45.3006 28.122ZM35.3389 22.9094C35.6378 23.4706 36.0824 23.935 36.6229 24.2506C37.1856 24.566 37.816 24.7313 38.4566 24.7313C39.0972 24.7313 39.7276 24.566 40.2903 24.2506C40.8307 23.9348 41.2753 23.4705 41.5743 22.9094C41.8853 22.3361 42.0408 21.684 42.0408 20.953C42.0408 20.2221 41.8853 19.5697 41.5743 18.9961C41.2751 18.4353 40.8306 17.9712 40.2903 17.6554C39.7276 17.34 39.0972 17.1747 38.4566 17.1747C37.816 17.1747 37.1856 17.34 36.6229 17.6554C36.0825 17.971 35.638 18.4352 35.3389 18.9961C35.0282 19.5697 34.8727 20.2221 34.8724 20.953C34.872 21.684 35.0275 22.3361 35.3389 22.9094Z" fill="url(#paint2_linear_30_592)"/>
<path d="M47.9933 25.659C47.082 24.726 46.6263 23.3943 46.6263 21.6641V15.0491H49.2783V21.5599C49.2783 23.6745 50.1297 24.7316 51.8324 24.7313C52.6617 24.7313 53.2946 24.4755 53.7311 23.9639C54.1677 23.4524 54.386 22.651 54.386 21.5599V15.0491H57.0075V21.6641C57.0075 23.3962 56.5518 24.7287 55.6406 25.6618C54.7293 26.5949 53.4551 27.0616 51.818 27.062C50.1795 27.0601 48.9046 26.5925 47.9933 25.659Z" fill="url(#paint3_linear_30_592)"/>
<path d="M68.4971 24.664V26.8569H59.6246V15.0491H68.2841V17.242H62.26V19.8059H67.5806V21.9315H62.26V24.664H68.4971Z" fill="url(#paint4_linear_30_592)"/>
<path d="M77.9099 26.8569L75.7025 23.5676H73.2634V26.8569H70.6115V15.0491H75.572C76.587 15.0491 77.4682 15.2235 78.2154 15.5723C78.9626 15.921 79.5385 16.4159 79.9429 17.0568C80.3463 17.6973 80.5482 18.4562 80.5485 19.3334C80.5489 20.2107 80.3442 20.967 79.9344 21.6024C79.5253 22.2382 78.9443 22.7245 78.1913 23.0615L80.7593 26.8569H77.9099ZM77.239 17.8054C76.8239 17.4515 76.2175 17.2743 75.42 17.274H73.2592V21.3902H75.42C76.2168 21.3902 76.8232 21.2101 77.239 20.8499C77.6549 20.4898 77.8621 19.9837 77.8607 19.3318C77.8607 18.6696 77.6535 18.1607 77.239 17.8054Z" fill="url(#paint5_linear_30_592)"/>
<path d="M82.297 26.5195C81.9913 26.205 81.8386 25.8114 81.839 25.3388C81.839 24.8551 81.9916 24.4643 82.297 24.1663C82.6069 23.8784 83.0094 23.7191 83.4266 23.7191C83.8439 23.7191 84.2463 23.8784 84.5563 24.1663C84.8619 24.4647 85.0148 24.8555 85.0148 25.3388C85.0148 25.8106 84.8619 26.2042 84.5563 26.5195C84.2536 26.8222 83.8484 26.9915 83.4266 26.9915C83.0048 26.9915 82.5996 26.8222 82.297 26.5195Z" fill="url(#paint6_linear_30_592)"/>
<path d="M88.917 26.2748C87.9952 25.7737 87.2249 25.021 86.6904 24.099C86.1504 23.1711 85.8804 22.1224 85.8804 20.953C85.8804 19.7836 86.1511 18.7344 86.6925 17.8054C87.2267 16.8843 87.9962 16.1322 88.917 15.6312C89.8608 15.1079 90.922 14.8464 92.1008 14.8468C93.0938 14.8468 93.9915 15.0267 94.794 15.3865C95.5772 15.7323 96.27 16.264 96.8158 16.9383L95.1134 18.5578C94.3384 17.6361 93.3779 17.1751 92.2319 17.1747C91.5225 17.1747 90.8896 17.335 90.3332 17.6554C89.7851 17.9667 89.3338 18.4315 89.0315 18.9961C88.7205 19.5697 88.565 20.2221 88.565 20.953C88.565 21.684 88.7205 22.3361 89.0315 22.9094C89.3336 23.4743 89.785 23.9393 90.3332 24.2506C90.8896 24.5707 91.5225 24.7309 92.2319 24.7313C93.3779 24.7313 94.3384 24.2646 95.1134 23.3311L96.8158 24.9507C96.2723 25.6351 95.5757 26.1734 94.786 26.5195C93.9781 26.879 93.0777 27.0588 92.0848 27.0592C90.9185 27.0592 89.8626 26.7977 88.917 26.2748Z" fill="url(#paint7_linear_30_592)"/>
<path d="M98.6005 15.0491H101.252V24.6304H107V26.8569H98.6005V15.0491Z" fill="url(#paint8_linear_30_592)"/>
<path fill-rule="evenodd" clip-rule="evenodd" d="M19.902 7.37297C19.581 7.37297 19.0733 7.52015 18.6426 7.74782C18.8384 7.26217 18.955 6.69273 18.9513 6.33331C18.9449 5.60566 18.4318 5.01968 17.8074 5.0274C17.1831 5.03512 16.6791 5.62992 16.6872 6.35812C16.6872 6.71643 16.8193 7.28256 17.0242 7.76381C16.5903 7.54331 16.0805 7.41266 15.76 7.41597C15.1089 7.42368 14.5867 7.99643 14.5937 8.69652C14.6007 9.39661 15.1324 9.95888 15.7846 9.95227C16.3271 9.94676 17.4051 9.53718 17.7406 8.9964C17.4832 9.97156 16.7722 10.4462 16.2511 10.6667C16.0564 10.7626 16.1505 10.8464 16.2383 10.8447L17.8625 10.8254C17.8625 10.8254 19.2407 10.8128 19.4879 10.8089C19.5772 10.8089 19.6687 10.724 19.4734 10.6336C18.9481 10.4241 18.2269 9.9644 17.9519 8.99254C18.2954 9.52946 19.3803 9.91258 19.9271 9.90817C20.5761 9.90045 21.0977 9.32825 21.0902 8.62817C21.0827 7.92808 20.5509 7.36525 19.902 7.37297Z" fill="url(#paint9_linear_30_592)"/>
<path fill-rule="evenodd" clip-rule="evenodd" d="M50.1049 9.53938C50.2398 9.54021 50.3734 9.51307 50.4978 9.45956C50.6223 9.40605 50.735 9.32727 50.8293 9.22792C50.9242 9.12912 50.999 9.01185 51.0494 8.88294C51.0998 8.75404 51.1249 8.61609 51.123 8.47712C51.123 7.82058 50.6415 7.3636 50.2135 6.96284L50.1258 6.87905C49.5662 6.36694 49.0863 5.87357 48.9087 5.03291H48.8498C48.7048 5.91491 48.0564 6.56208 47.5096 7.02954C47.2849 7.21213 47.085 7.42498 46.9152 7.66238C46.7412 7.90449 46.6464 8.19735 46.6445 8.49862C46.6493 8.78061 46.7624 9.04916 46.9589 9.24546C47.1554 9.44177 47.4194 9.54983 47.6931 9.546C48.2367 9.546 48.6481 9.1491 48.838 8.73125C48.838 8.74724 48.838 8.76157 48.838 8.7759C48.8412 9.33156 48.6861 9.79075 48.3886 10.1105C48.0912 10.4302 47.6535 10.6016 47.1234 10.5983H47.0993L47.0576 10.8381L50.7309 10.8293L50.6875 10.589H50.6645C49.5539 10.5553 48.9686 9.91203 48.9648 8.72684V8.72298C49.22 9.23785 49.6379 9.54104 50.1049 9.53938Z" fill="url(#paint10_linear_30_592)"/>
<path fill-rule="evenodd" clip-rule="evenodd" d="M65.2818 5.09135C65.0113 5.0839 64.7428 5.1404 64.4969 5.2565C64.2509 5.3726 64.0341 5.54522 63.863 5.76111C63.7038 5.53606 63.4968 5.35157 63.2577 5.22181C63.0186 5.09204 62.7538 5.02044 62.4837 5.01252C61.5057 4.98551 60.6717 5.77875 60.6647 6.78313C60.6524 8.66289 62.717 8.97159 63.5045 10.4997C63.543 10.5719 63.5757 10.6479 63.6115 10.7268C63.7035 10.9473 63.7961 10.8519 63.841 10.751C63.8795 10.6678 63.9213 10.5884 63.9651 10.5134C64.8356 9.03003 66.9141 8.8404 67.0013 6.96339C67.0483 5.96012 66.2576 5.12001 65.2818 5.09135Z" fill="url(#paint11_linear_30_592)"/>
<path d="M67.0773 0H49.9348C49.0486 0.000743209 48.1813 0.264442 47.4366 0.759575C46.6919 1.25471 46.1014 1.96033 45.7356 2.79208H67.0773C67.5807 2.79252 68.0634 2.99878 68.4194 3.36558C68.7754 3.73238 68.9756 4.22974 68.976 4.74847V11.7697H71.6858V4.74847C71.6846 3.48945 71.1987 2.28234 70.3347 1.39208C69.4707 0.501826 68.2992 0.00116765 67.0773 0Z" fill="url(#paint12_linear_30_592)"/>
<path d="M56.1643 2.79208C55.7983 1.96024 55.2076 1.25458 54.4628 0.759452C53.7179 0.264323 52.8504 0.000667903 51.964 0L34.8216 0C33.9354 0.000613822 33.0682 0.264273 32.3237 0.759434C31.5792 1.25459 30.9889 1.96029 30.6234 2.79208H51.964C52.4675 2.79266 52.9502 2.99893 53.3064 3.36567C53.6625 3.73241 53.863 4.22968 53.8638 4.74847V11.7697H56.5736V4.74847C56.5741 4.07373 56.4346 3.40669 56.1643 2.79208Z" fill="url(#paint13_linear_30_592)"/>
<path fill-rule="evenodd" clip-rule="evenodd" d="M36.8252 7.7175C35.9307 7.26713 34.8318 6.14478 34.3861 5.22861C34.2582 4.96621 34.1133 4.96511 33.9886 5.22475C33.5488 6.14644 32.4596 7.27871 31.5704 7.739C31.3184 7.86965 31.3163 8.01959 31.5704 8.14582C32.4644 8.5984 33.5676 9.72515 34.0116 10.6419C34.1373 10.9032 34.2791 10.9004 34.4075 10.6386C34.8441 9.71688 35.9392 8.58076 36.8289 8.12267C37.0804 7.99588 37.0782 7.8476 36.8252 7.7175Z" fill="url(#paint14_linear_30_592)"/>
<path d="M41.3775 2.79208C41.0119 1.96037 40.4216 1.25475 39.6771 0.75961C38.9326 0.264465 38.0654 0.000750298 37.1793 0L21.751 0C22.6373 0.000538551 23.5047 0.264154 24.2494 0.759311C24.9941 1.25447 25.5846 1.9602 25.9502 2.79208H37.1793C37.6827 2.79266 38.1653 2.99897 38.5213 3.36574C38.8772 3.73251 39.0775 4.22978 39.078 4.74847V11.7697H41.7867V4.74847C41.7875 4.0737 41.6479 3.4066 41.3775 2.79208Z" fill="url(#paint15_linear_30_592)"/>
<path d="M71.2759 31.209C70.91 32.0405 70.3195 32.7459 69.575 33.2408C68.8304 33.7358 67.9633 33.9993 67.0772 34H4.60849C3.38686 33.9985 2.21566 33.4979 1.35174 32.608C0.487815 31.718 0.00169903 30.5114 0 29.2526L0 4.74847C0.00127461 3.4895 0.48722 2.28247 1.3512 1.39224C2.21519 0.502019 3.38663 0.00131333 4.60849 0L21.751 0C22.9732 0 24.1454 0.500284 25.0097 1.39079C25.8739 2.2813 26.3595 3.4891 26.3595 4.74847V11.7697H23.6497V4.74847C23.6491 4.22978 23.4489 3.73251 23.0929 3.36574C22.737 2.99897 22.2544 2.79267 21.751 2.79208H4.60849C4.10499 2.79266 3.62227 2.99894 3.26614 3.36567C2.91002 3.73241 2.70955 4.22968 2.70871 4.74847V29.2526C2.70955 29.7714 2.91002 30.2687 3.26614 30.6354C3.62227 31.0022 4.10499 31.2084 4.60849 31.209H71.2759Z" fill="url(#paint16_linear_30_592)"/>
<path fill-rule="evenodd" clip-rule="evenodd" d="M4.60853 31.209H2.70874V29.2526C2.70959 29.7714 2.91005 30.2687 3.26618 30.6354C3.6223 31.0022 4.10503 31.2084 4.60853 31.209Z" fill="url(#paint17_linear_30_592)"/>
</g>
<defs>
<linearGradient id="paint0_linear_30_592" x1="3.15755" y1="20.9056" x2="118.371" y2="21.7031" gradientUnits="userSpaceOnUse">
<stop stop-color="#0066DF"/>
<stop offset="1" stop-color="#2E3192"/>
</linearGradient>
<linearGradient id="paint1_linear_30_592" x1="3.15808" y1="20.7954" x2="118.372" y2="21.5929" gradientUnits="userSpaceOnUse">
<stop stop-color="#0066DF"/>
<stop offset="1" stop-color="#2E3192"/>
</linearGradient>
<linearGradient id="paint2_linear_30_592" x1="3.15009" y1="21.9364" x2="118.364" y2="22.734" gradientUnits="userSpaceOnUse">
<stop stop-color="#0066DF"/>
<stop offset="1" stop-color="#2E3192"/>
</linearGradient>
<linearGradient id="paint3_linear_30_592" x1="3.15918" y1="20.6779" x2="118.373" y2="21.4755" gradientUnits="userSpaceOnUse">
<stop stop-color="#0066DF"/>
<stop offset="1" stop-color="#2E3192"/>
</linearGradient>
<linearGradient id="paint4_linear_30_592" x1="3.16021" y1="20.5065" x2="118.374" y2="21.304" gradientUnits="userSpaceOnUse">
<stop stop-color="#0066DF"/>
<stop offset="1" stop-color="#2E3192"/>
</linearGradient>
<linearGradient id="paint5_linear_30_592" x1="3.16077" y1="20.4393" x2="118.374" y2="21.2368" gradientUnits="userSpaceOnUse">
<stop stop-color="#0066DF"/>
<stop offset="1" stop-color="#2E3192"/>
</linearGradient>
<linearGradient id="paint6_linear_30_592" x1="3.13071" y1="24.7655" x2="118.345" y2="25.563" gradientUnits="userSpaceOnUse">
<stop stop-color="#0066DF"/>
<stop offset="1" stop-color="#2E3192"/>
</linearGradient>
<linearGradient id="paint7_linear_30_592" x1="3.16134" y1="20.2992" x2="118.376" y2="21.0968" gradientUnits="userSpaceOnUse">
<stop stop-color="#0066DF"/>
<stop offset="1" stop-color="#2E3192"/>
</linearGradient>
<linearGradient id="paint8_linear_30_592" x1="3.16182" y1="20.2419" x2="118.376" y2="21.0394" gradientUnits="userSpaceOnUse">
<stop stop-color="#0066DF"/>
<stop offset="1" stop-color="#2E3192"/>
</linearGradient>
<linearGradient id="paint9_linear_30_592" x1="17.5736" y1="-2.32462" x2="18.7079" y2="41.4501" gradientUnits="userSpaceOnUse">
<stop stop-color="#D01500"/>
<stop offset="1" stop-color="#AA0000"/>
</linearGradient>
<linearGradient id="paint10_linear_30_592" x1="48.6005" y1="-3.12889" x2="49.7347" y2="40.6464" gradientUnits="userSpaceOnUse">
<stop stop-color="#D01500"/>
<stop offset="1" stop-color="#AA0000"/>
</linearGradient>
<linearGradient id="paint11_linear_30_592" x1="3.25016" y1="7.4959" x2="118.464" y2="8.29344" gradientUnits="userSpaceOnUse">
<stop stop-color="#0066DF"/>
<stop offset="1" stop-color="#2E3192"/>
</linearGradient>
<linearGradient id="paint12_linear_30_592" x1="3.26461" y1="5.40886" x2="118.479" y2="6.2064" gradientUnits="userSpaceOnUse">
<stop stop-color="#0066DF"/>
<stop offset="1" stop-color="#2E3192"/>
</linearGradient>
<linearGradient id="paint13_linear_30_592" x1="43.4773" y1="-1.21771" x2="43.8834" y2="14.457" gradientUnits="userSpaceOnUse">
<stop stop-color="#D01500"/>
<stop offset="1" stop-color="#AA0000"/>
</linearGradient>
<linearGradient id="paint14_linear_30_592" x1="3.24857" y1="7.70868" x2="118.463" y2="8.50622" gradientUnits="userSpaceOnUse">
<stop stop-color="#0066DF"/>
<stop offset="1" stop-color="#2E3192"/>
</linearGradient>
<linearGradient id="paint15_linear_30_592" x1="3.26298" y1="5.62881" x2="118.477" y2="6.42635" gradientUnits="userSpaceOnUse">
<stop stop-color="#0066DF"/>
<stop offset="1" stop-color="#2E3192"/>
</linearGradient>
<linearGradient id="paint16_linear_30_592" x1="34.8804" y1="-0.786083" x2="35.8022" y2="34.8117" gradientUnits="userSpaceOnUse">
<stop stop-color="#D01500"/>
<stop offset="1" stop-color="#AA0000"/>
</linearGradient>
<linearGradient id="paint17_linear_30_592" x1="3.61022" y1="29.2289" x2="3.66247" y2="31.2332" gradientUnits="userSpaceOnUse">
<stop stop-color="#D01500"/>
<stop offset="1" stop-color="#AA0000"/>
</linearGradient>
<clipPath id="clip0_30_592">
<rect width="107" height="34" fill="white"/>
</clipPath>
</defs>
</svg>
